<?xml version="1.0" encoding="utf-8"?>
<!-- Generator: Adobe Illustrator 26.0.1, SVG Export Plug-In . SVG Version: 6.00 Build 0)  -->
<svg version="1.1" id="Capa_1" xmlns="http://www.w3.org/2000/svg" xmlns:xlink="http://www.w3.org/1999/xlink" x="0px" y="0px"
	 viewBox="0 0 1000 1000" style="enable-background:new 0 0 1000 1000;" xml:space="preserve">
<style type="text/css">
	.st0{fill:#DCDCDC;}
	
		.st1{clip-path:url(#SVGID_00000129193427801378285250000004173972875959036814_);fill:url(#SVGID_00000003099766220601995780000016104121199470331286_);}
	
		.st2{clip-path:url(#SVGID_00000129193427801378285250000004173972875959036814_);fill:url(#SVGID_00000039096195176927796530000012177179956781142403_);}
	.st3{clip-path:url(#SVGID_00000129193427801378285250000004173972875959036814_);fill:#DCDCDC;}
	
		.st4{clip-path:url(#SVGID_00000129193427801378285250000004173972875959036814_);fill:#FFFFFF;stroke:#333333;stroke-width:2;stroke-linecap:round;stroke-linejoin:round;stroke-miterlimit:10;}
	
		.st5{clip-path:url(#SVGID_00000129193427801378285250000004173972875959036814_);fill:none;stroke:#333333;stroke-width:2;stroke-linecap:round;stroke-linejoin:round;stroke-miterlimit:10;}
	
		.st6{clip-path:url(#SVGID_00000129193427801378285250000004173972875959036814_);fill:url(#SVGID_00000026871378350557563300000016071856230496556444_);}
	.st7{clip-path:url(#SVGID_00000129193427801378285250000004173972875959036814_);}
	.st8{fill:#FFFFFF;stroke:#333333;stroke-width:2;stroke-linecap:round;stroke-linejoin:round;stroke-miterlimit:10;}
	.st9{fill:none;stroke:#333333;stroke-width:2;stroke-linecap:round;stroke-linejoin:round;stroke-miterlimit:10;}
	.st10{fill:none;stroke:#333333;stroke-width:2;stroke-linecap:round;stroke-miterlimit:10;}
	
		.st11{clip-path:url(#SVGID_00000129193427801378285250000004173972875959036814_);fill:url(#SVGID_00000036236719226862439990000005059186378547168932_);}
	.st12{fill:url(#SVGID_00000001647133519339009010000002426543502175095434_);}
	.st13{fill:url(#SVGID_00000160897974240558950180000003389531102257344696_);}
	
		.st14{clip-path:url(#SVGID_00000129193427801378285250000004173972875959036814_);fill:url(#SVGID_00000131355710967678331750000009853082630300294319_);}
	
		.st15{clip-path:url(#SVGID_00000129193427801378285250000004173972875959036814_);fill:url(#SVGID_00000141455898346406794160000005252435506517471167_);}
	
		.st16{clip-path:url(#SVGID_00000129193427801378285250000004173972875959036814_);fill:url(#SVGID_00000050630940312450355870000007056710436759100577_);}
	
		.st17{clip-path:url(#SVGID_00000120551295160351153770000014649923579152636824_);fill:url(#SVGID_00000059303986424065624740000018223159203227858090_);}
	
		.st18{clip-path:url(#SVGID_00000120551295160351153770000014649923579152636824_);fill:url(#SVGID_00000016761127336872545560000002220828053761045154_);}
	.st19{clip-path:url(#SVGID_00000120551295160351153770000014649923579152636824_);fill:#DCDCDC;}
	
		.st20{clip-path:url(#SVGID_00000120551295160351153770000014649923579152636824_);fill:url(#SVGID_00000161596806656945218180000008403450499458970552_);}
	.st21{clip-path:url(#SVGID_00000120551295160351153770000014649923579152636824_);}
	.st22{fill:url(#SVGID_00000183247404857831511700000007673359857778661766_);stroke:#333333;stroke-miterlimit:10;}
	.st23{fill:url(#SVGID_00000177444148100105731260000000014293734276744620_);stroke:#333333;stroke-miterlimit:10;}
	.st24{fill:url(#SVGID_00000116943445475869450060000018264363395478453901_);stroke:#333333;stroke-miterlimit:10;}
	.st25{fill:url(#SVGID_00000043425524353509658580000002733099540822339006_);stroke:#333333;stroke-miterlimit:10;}
	.st26{fill:url(#SVGID_00000109748979513352597400000011658131999007056286_);stroke:#333333;stroke-miterlimit:10;}
	.st27{fill:url(#SVGID_00000021108630595717902100000005564552302216855699_);stroke:#333333;stroke-miterlimit:10;}
	.st28{fill:url(#SVGID_00000004506084850969750780000007977964564162429881_);stroke:#333333;stroke-miterlimit:10;}
	.st29{fill:url(#SVGID_00000111159868747423477600000014614838794179541411_);stroke:#333333;stroke-miterlimit:10;}
	.st30{fill:url(#SVGID_00000026856549484674395520000010148033483962908329_);stroke:#333333;stroke-miterlimit:10;}
	.st31{fill:url(#SVGID_00000034809431728571512380000016753100574277254075_);stroke:#333333;stroke-miterlimit:10;}
	.st32{fill:url(#SVGID_00000163046896367188889920000006563403302388458882_);stroke:#333333;stroke-miterlimit:10;}
	.st33{fill:url(#SVGID_00000147930435410462353620000013470564940537075639_);stroke:#333333;stroke-miterlimit:10;}
	.st34{fill:url(#SVGID_00000084494768047067959670000010030423480926182304_);stroke:#333333;stroke-miterlimit:10;}
	.st35{fill:url(#SVGID_00000157269186636203867670000013089176087961971074_);stroke:#333333;stroke-miterlimit:10;}
	
		.st36{clip-path:url(#SVGID_00000120551295160351153770000014649923579152636824_);fill:url(#SVGID_00000096029368453136973020000003266708115911134377_);}
	
		.st37{clip-path:url(#SVGID_00000120551295160351153770000014649923579152636824_);fill:url(#SVGID_00000111187546099585346450000006976282981999405467_);}
	
		.st38{clip-path:url(#SVGID_00000120551295160351153770000014649923579152636824_);fill:url(#SVGID_00000034808064570523367070000000673247350364665781_);}
	
		.st39{clip-path:url(#SVGID_00000120551295160351153770000014649923579152636824_);fill:none;stroke:#868686;stroke-width:3.0882;stroke-miterlimit:10;}
	.st40{fill:url(#SVGID_00000087398191075435551270000016587182276630847368_);stroke:#666666;stroke-width:3;stroke-miterlimit:10;}
	.st41{fill:url(#SVGID_00000125596613666309438990000008173656227941298864_);stroke:#666666;stroke-width:3;stroke-miterlimit:10;}
	.st42{fill:url(#SVGID_00000080167756120015564340000010989072921325418631_);stroke:#666666;stroke-width:3;stroke-miterlimit:10;}
	.st43{fill:url(#SVGID_00000143595147201181419400000001068329982295986072_);stroke:#666666;stroke-width:3;stroke-miterlimit:10;}
	.st44{fill:url(#SVGID_00000054974709184395119950000012675383671942553016_);stroke:#666666;stroke-width:3;stroke-miterlimit:10;}
	.st45{fill:url(#SVGID_00000165206944202159205150000008407052374623947396_);stroke:#666666;stroke-width:3;stroke-miterlimit:10;}
	.st46{fill:url(#SVGID_00000034075473282267912630000016110591515008774823_);stroke:#666666;stroke-width:3;stroke-miterlimit:10;}
	.st47{fill:url(#SVGID_00000163769891079544739650000017189348897755621564_);stroke:#666666;stroke-width:3;stroke-miterlimit:10;}
	.st48{fill:url(#SVGID_00000127757643174452407210000003674900238738723494_);stroke:#666666;stroke-width:3;stroke-miterlimit:10;}
	.st49{fill:url(#SVGID_00000147221505589808520620000000561473525281503665_);stroke:#666666;stroke-width:3;stroke-miterlimit:10;}
	.st50{fill:url(#SVGID_00000065046563765910133600000001988836030077505190_);stroke:#666666;stroke-width:3;stroke-miterlimit:10;}
	.st51{fill:none;stroke:#333333;stroke-width:3;stroke-miterlimit:10;}
	.st52{fill:none;stroke:#1E1E1C;stroke-width:6.151;stroke-miterlimit:10;}
	.st53{fill:url(#SVGID_00000068635574685101960670000014777209214785840560_);}
	.st54{fill:#F6A316;}
	.st55{fill:url(#SVGID_00000004539489456505832000000000196510577320646794_);}
	
		.st56{clip-path:url(#SVGID_00000037650163133437502660000005491120222485652383_);fill:none;stroke:#1E1E1C;stroke-width:5;stroke-miterlimit:10;}
	
		.st57{clip-path:url(#SVGID_00000037650163133437502660000005491120222485652383_);fill:none;stroke:#1D1F1C;stroke-width:5;stroke-miterlimit:10;}
	
		.st58{clip-path:url(#SVGID_00000037650163133437502660000005491120222485652383_);fill:#FFFFFF;stroke:#1E1E1C;stroke-width:6.151;stroke-miterlimit:10;}
	.st59{clip-path:url(#SVGID_00000037650163133437502660000005491120222485652383_);}
	.st60{fill:#FBBE64;stroke:#1E1E1C;stroke-width:6.151;stroke-miterlimit:10;}
	.st61{fill:#FFFFFF;}
	.st62{clip-path:url(#SVGID_00000077288079693834901820000016181825231894029961_);}
	.st63{fill:#FFFFFF;stroke:#1E1E1C;stroke-width:6.151;stroke-miterlimit:10;}
	.st64{clip-path:url(#SVGID_00000077288079693834901820000016181825231894029961_);fill:#F5A200;}
	
		.st65{clip-path:url(#SVGID_00000154393201878268070900000016566961843996851599_);fill:none;stroke:#1E1E1C;stroke-width:6.151;stroke-miterlimit:10;}
	
		.st66{clip-path:url(#SVGID_00000154393201878268070900000016566961843996851599_);fill:none;stroke:#1D1F1C;stroke-width:6.151;stroke-miterlimit:10;}
	.st67{clip-path:url(#SVGID_00000154393201878268070900000016566961843996851599_);fill:#F6A316;}
	.st68{clip-path:url(#SVGID_00000154393201878268070900000016566961843996851599_);fill:#FFFFFF;}
</style>
<g>
	<defs>
		<circle id="SVGID_00000119085096443405612170000011852439143785299627_" cx="500" cy="500" r="492"/>
	</defs>
	<clipPath id="SVGID_00000117653027053841631520000013721029517734162596_">
		<use xlink:href="#SVGID_00000119085096443405612170000011852439143785299627_"  style="overflow:visible;"/>
	</clipPath>
	
		<path style="clip-path:url(#SVGID_00000117653027053841631520000013721029517734162596_);fill:none;stroke:#1E1E1C;stroke-width:6.151;stroke-miterlimit:10;" d="
		M450.7,188.7c0,0-25.1,24.3-31.1,64.4s-24.1,94.3-26.1,108.4c-2,14-32.1,62.2-32.1,62.2s-60.2,14-78.3,30.1s-72.3,60.2-70.2,100.3
		c2,40.1-6,66.2,36.1,108.4c22.9,22.9,76.3,42.1,76.3,42.1s3.8,15.2,12,16.1c20.1,2,26.1-8,26.1-8s64.2,4,92.3-18.1
		c37.6-29.6,62.2-74.3,58.2-108.4c-4-34.1-34.1-86.3-52.2-102.4c-18.1-16.1-36.1-46.2-36.1-46.2s12-124.4,20.1-158.6
		c8-34.1,27.5-51.8,30.8-65.6C482.2,189.6,450.7,188.7,450.7,188.7z"/>
	
		<path style="clip-path:url(#SVGID_00000117653027053841631520000013721029517734162596_);fill:none;stroke:#1D1F1C;stroke-width:6.151;stroke-miterlimit:10;" d="
		M646,617.4l-7.6-19.1c0,0-38.5-7.2-64.2-18.1c-38.1-16.1-93.4-72.1-94.3-136.5c-2-146.5,100.3-164.6,100.3-164.6s20.6-59.5,6-92.3
		c-24.1-54.2-97.2-28.4-117.3-16.3c-20.1,12-21-62.1-21-62.1s108.2-15.9,144.3,22.2s72.3,124.4,72.3,124.4s88.3,4,122.4,104.4
		c34.1,100.3,29,147.7-4,190.7c-20.1,26.1-118.4,44.2-118.4,44.2s1.8,11.7,0.6,22.5"/>
	
		<path style="clip-path:url(#SVGID_00000117653027053841631520000013721029517734162596_);fill:none;stroke:#1E1E1C;stroke-width:6.151;stroke-miterlimit:10;" d="
		M277.4,240.3c0,0-13.6-29.7-1.5-72c10.6-36.9,43.3-58.4,59.4-68.7c16.1-10.2,61.7-24.8,77.2-37s0.6,34.1-6.2,48.2
		s3.4,30.2-11.7,52.6c-15.1,22.4-56,49.2-75.9,60.4C298.8,234.9,277.4,240.3,277.4,240.3z"/>
	
		<path style="clip-path:url(#SVGID_00000117653027053841631520000013721029517734162596_);fill:none;stroke:#1E1E1C;stroke-width:6.151;stroke-miterlimit:10;" d="
		M467,171.9c6.1,14.6,13,27.9,20.9,39.1c62.2,88.3,62.3,81.9,62.3,81.9"/>
	
		<path style="clip-path:url(#SVGID_00000117653027053841631520000013721029517734162596_);fill:none;stroke:#1E1E1C;stroke-width:6.151;stroke-miterlimit:10;" d="
		M423.6-94.1c0,0,1,108.1,23.5,202.7"/>
	
		<path style="clip-path:url(#SVGID_00000117653027053841631520000013721029517734162596_);fill:none;stroke:#1E1E1C;stroke-width:6.151;stroke-miterlimit:10;" d="
		M469.8,229.8c0,2.9,63.1,80.3,63.1,80.3"/>
	
		<path style="clip-path:url(#SVGID_00000117653027053841631520000013721029517734162596_);fill:none;stroke:#1E1E1C;stroke-width:6.151;stroke-miterlimit:10;" d="
		M406.4-76.9c0,0,1.6,168.5,44.6,268.9"/>
	
		<path style="clip-path:url(#SVGID_00000117653027053841631520000013721029517734162596_);fill:none;stroke:#1E1E1C;stroke-width:6.151;stroke-miterlimit:10;" d="
		M547.8,651.2c-16.7-13.9-34.2-25.6-37.8-26.8"/>
	
		<path style="clip-path:url(#SVGID_00000117653027053841631520000013721029517734162596_);fill:none;stroke:#1E1E1C;stroke-width:6.151;stroke-miterlimit:10;" d="
		M272,463.9c0,0-41.1-10.1-55.1-0.1s-34.1,24.1-44.2,42.1c-10,18.1-36.1,70.2-36.1,88.3s-4,56.2,2,74.3s8,32.1,24.1,48.2
		c16.1,16.1,40.1,30.1,50.2,36.1c10,6,26.1,4,20.1,14c-6,10-16.1,14-10,26.1c6,12,28.1,48.2,28.1,48.2s18.1,28.1,40.1,38.1
		s58.2,30.1,98.3,30.1s82.3,6,106.4,0s96.3-34.1,96.3-34.1"/>
	
		<ellipse style="clip-path:url(#SVGID_00000117653027053841631520000013721029517734162596_);fill:none;stroke:#1D1F1C;stroke-width:6.151;stroke-miterlimit:10;" cx="659.3" cy="752.8" rx="165.5" ry="136.5"/>
	<path style="clip-path:url(#SVGID_00000117653027053841631520000013721029517734162596_);fill:#F6A316;" d="M399.9,462.7
		c0,0-38.3-8.5-72.5-4.3c-85.3,10.7-102.4,119.5-100.3,128c2.1,8.5,27.7,57.6,34.1,61.9c6.4,4.3,61.9,42.7,74.7,46.9
		s66.1-2.1,81.1-4.3c14.9-2.1,51.2-29.9,59.7-46.9c8.5-17.1,25.6-42.7,23.5-57.6S476.7,486.1,399.9,462.7z"/>
	
		<circle style="clip-path:url(#SVGID_00000117653027053841631520000013721029517734162596_);fill:#FFFFFF;" cx="252.7" cy="548" r="10.7"/>
	
		<circle style="clip-path:url(#SVGID_00000117653027053841631520000013721029517734162596_);fill:#FFFFFF;" cx="267.7" cy="518.1" r="10.7"/>
	
		<circle style="clip-path:url(#SVGID_00000117653027053841631520000013721029517734162596_);fill:#FFFFFF;" cx="248.5" cy="575.7" r="10.7"/>
	
		<circle style="clip-path:url(#SVGID_00000117653027053841631520000013721029517734162596_);fill:#FFFFFF;" cx="254.9" cy="603.5" r="10.7"/>
	
		<circle style="clip-path:url(#SVGID_00000117653027053841631520000013721029517734162596_);fill:#FFFFFF;" cx="269.8" cy="629.1" r="10.7"/>
	
		<circle style="clip-path:url(#SVGID_00000117653027053841631520000013721029517734162596_);fill:#FFFFFF;" cx="297.5" cy="648.3" r="10.7"/>
	
		<circle style="clip-path:url(#SVGID_00000117653027053841631520000013721029517734162596_);fill:#FFFFFF;" cx="325.3" cy="663.2" r="10.7"/>
	
		<circle style="clip-path:url(#SVGID_00000117653027053841631520000013721029517734162596_);fill:#FFFFFF;" cx="359.4" cy="676" r="10.7"/>
	
		<circle style="clip-path:url(#SVGID_00000117653027053841631520000013721029517734162596_);fill:#FFFFFF;" cx="286.9" cy="599.2" r="10.7"/>
	
		<circle style="clip-path:url(#SVGID_00000117653027053841631520000013721029517734162596_);fill:#FFFFFF;" cx="310.3" cy="618.4" r="10.7"/>
	
		<circle style="clip-path:url(#SVGID_00000117653027053841631520000013721029517734162596_);fill:#FFFFFF;" cx="338.1" cy="605.6" r="10.7"/>
	
		<circle style="clip-path:url(#SVGID_00000117653027053841631520000013721029517734162596_);fill:#FFFFFF;" cx="367.9" cy="607.7" r="10.7"/>
	
		<circle style="clip-path:url(#SVGID_00000117653027053841631520000013721029517734162596_);fill:#FFFFFF;" cx="333.8" cy="575.7" r="10.7"/>
	
		<circle style="clip-path:url(#SVGID_00000117653027053841631520000013721029517734162596_);fill:#FFFFFF;" cx="375.4" cy="577.8" r="10.7"/>
	
		<circle style="clip-path:url(#SVGID_00000117653027053841631520000013721029517734162596_);fill:#FFFFFF;" cx="399.9" cy="496.5" r="10.7"/>
	
		<circle style="clip-path:url(#SVGID_00000117653027053841631520000013721029517734162596_);fill:#FFFFFF;" cx="363.1" cy="547.1" r="10.7"/>
	
		<circle style="clip-path:url(#SVGID_00000117653027053841631520000013721029517734162596_);fill:#FFFFFF;" cx="358.5" cy="513.4" r="10.7"/>
	
		<circle style="clip-path:url(#SVGID_00000117653027053841631520000013721029517734162596_);fill:#FFFFFF;" cx="367.9" cy="481.9" r="10.7"/>
	
		<circle style="clip-path:url(#SVGID_00000117653027053841631520000013721029517734162596_);fill:#FFFFFF;" cx="327.5" cy="514.1" r="10.7"/>
	
		<circle style="clip-path:url(#SVGID_00000117653027053841631520000013721029517734162596_);fill:#FFFFFF;" cx="325.3" cy="472.9" r="10.7"/>
	
		<circle style="clip-path:url(#SVGID_00000117653027053841631520000013721029517734162596_);fill:#FFFFFF;" cx="295.4" cy="496.8" r="10.7"/>
	
		<circle style="clip-path:url(#SVGID_00000117653027053841631520000013721029517734162596_);fill:#FFFFFF;" cx="408.5" cy="631.2" r="10.7"/>
	
		<circle style="clip-path:url(#SVGID_00000117653027053841631520000013721029517734162596_);fill:#FFFFFF;" cx="442.6" cy="612" r="10.7"/>
	
		<circle style="clip-path:url(#SVGID_00000117653027053841631520000013721029517734162596_);fill:#FFFFFF;" cx="474.6" cy="571.5" r="10.7"/>
	
		<circle style="clip-path:url(#SVGID_00000117653027053841631520000013721029517734162596_);fill:#FFFFFF;" cx="442.6" cy="575.7" r="10.7"/>
	
		<circle style="clip-path:url(#SVGID_00000117653027053841631520000013721029517734162596_);fill:#FFFFFF;" cx="418.8" cy="529.9" r="10.7"/>
	
		<circle style="clip-path:url(#SVGID_00000117653027053841631520000013721029517734162596_);fill:#FFFFFF;" cx="453.3" cy="535.2" r="10.7"/>
	
		<circle style="clip-path:url(#SVGID_00000117653027053841631520000013721029517734162596_);fill:#FFFFFF;" cx="393.5" cy="671.8" r="10.7"/>
	
		<circle style="clip-path:url(#SVGID_00000117653027053841631520000013721029517734162596_);fill:#FFFFFF;" cx="346.6" cy="639.8" r="10.7"/>
	
		<circle style="clip-path:url(#SVGID_00000117653027053841631520000013721029517734162596_);fill:#FFFFFF;" cx="378.6" cy="639.8" r="10.7"/>
	
		<circle style="clip-path:url(#SVGID_00000117653027053841631520000013721029517734162596_);fill:#FFFFFF;" cx="409.1" cy="583.6" r="10.7"/>
	
		<circle style="clip-path:url(#SVGID_00000117653027053841631520000013721029517734162596_);fill:#FFFFFF;" cx="391.4" cy="547.7" r="10.7"/>
	
		<circle style="clip-path:url(#SVGID_00000117653027053841631520000013721029517734162596_);fill:#FFFFFF;" cx="432.1" cy="499.6" r="10.7"/>
	
		<circle style="clip-path:url(#SVGID_00000117653027053841631520000013721029517734162596_);fill:#FFFFFF;" cx="429.8" cy="663.2" r="10.7"/>
	
		<circle style="clip-path:url(#SVGID_00000117653027053841631520000013721029517734162596_);fill:#FFFFFF;" cx="310.3" cy="584.3" r="10.7"/>
	
		<circle style="clip-path:url(#SVGID_00000117653027053841631520000013721029517734162596_);fill:#FFFFFF;" cx="453.3" cy="644" r="10.7"/>
	
		<circle style="clip-path:url(#SVGID_00000117653027053841631520000013721029517734162596_);fill:#FFFFFF;" cx="317.2" cy="544.1" r="10.7"/>
	
		<circle style="clip-path:url(#SVGID_00000117653027053841631520000013721029517734162596_);fill:#FFFFFF;" cx="474.6" cy="609.9" r="10.7"/>
	
		<circle style="clip-path:url(#SVGID_00000117653027053841631520000013721029517734162596_);fill:#FFFFFF;" cx="278.3" cy="569.3" r="10.7"/>
	
		<circle style="clip-path:url(#SVGID_00000117653027053841631520000013721029517734162596_);fill:#FFFFFF;" cx="291.1" cy="539.5" r="10.7"/>
	
		<use xlink:href="#SVGID_00000119085096443405612170000011852439143785299627_"  style="overflow:visible;fill:none;stroke:#333333;stroke-width:3;stroke-miterlimit:10;"/>
</g>
</svg>
