<?xml version="1.0" encoding="utf-8"?>
<!-- Generator: Adobe Illustrator 26.0.1, SVG Export Plug-In . SVG Version: 6.00 Build 0)  -->
<svg version="1.1" id="Capa_1" xmlns="http://www.w3.org/2000/svg" xmlns:xlink="http://www.w3.org/1999/xlink" x="0px" y="0px"
	 viewBox="0 0 1000 1000" style="enable-background:new 0 0 1000 1000;" xml:space="preserve">
<style type="text/css">
	.st0{fill:#DCDCDC;}
	
		.st1{clip-path:url(#SVGID_00000160191159195420240080000018179592766343712943_);fill:url(#SVGID_00000062899657363614153090000014991946220679354276_);}
	
		.st2{clip-path:url(#SVGID_00000160191159195420240080000018179592766343712943_);fill:url(#SVGID_00000036235918100377870360000007319979002303924640_);}
	.st3{clip-path:url(#SVGID_00000160191159195420240080000018179592766343712943_);fill:#DCDCDC;}
	
		.st4{clip-path:url(#SVGID_00000160191159195420240080000018179592766343712943_);fill:#FFFFFF;stroke:#333333;stroke-width:2;stroke-linecap:round;stroke-linejoin:round;stroke-miterlimit:10;}
	
		.st5{clip-path:url(#SVGID_00000160191159195420240080000018179592766343712943_);fill:none;stroke:#333333;stroke-width:2;stroke-linecap:round;stroke-linejoin:round;stroke-miterlimit:10;}
	
		.st6{clip-path:url(#SVGID_00000160191159195420240080000018179592766343712943_);fill:url(#SVGID_00000134227277538869240460000012586621756155570841_);}
	.st7{clip-path:url(#SVGID_00000160191159195420240080000018179592766343712943_);}
	.st8{fill:#FFFFFF;stroke:#333333;stroke-width:2;stroke-linecap:round;stroke-linejoin:round;stroke-miterlimit:10;}
	.st9{fill:none;stroke:#333333;stroke-width:2;stroke-linecap:round;stroke-linejoin:round;stroke-miterlimit:10;}
	.st10{fill:none;stroke:#333333;stroke-width:2;stroke-linecap:round;stroke-miterlimit:10;}
	
		.st11{clip-path:url(#SVGID_00000160191159195420240080000018179592766343712943_);fill:url(#SVGID_00000124841236816587895340000011914118259475025799_);}
	.st12{fill:url(#SVGID_00000106830867799168267390000014010665322586463377_);}
	.st13{fill:url(#SVGID_00000070106918826816879840000008089104462694809532_);}
	
		.st14{clip-path:url(#SVGID_00000160191159195420240080000018179592766343712943_);fill:url(#SVGID_00000008126222737247582210000000579208895514158469_);}
	
		.st15{clip-path:url(#SVGID_00000160191159195420240080000018179592766343712943_);fill:url(#SVGID_00000128451389264927165770000016227372928456091013_);}
	
		.st16{clip-path:url(#SVGID_00000160191159195420240080000018179592766343712943_);fill:url(#SVGID_00000150787350757255321070000016664149922680974751_);}
	
		.st17{clip-path:url(#SVGID_00000001625695989271375810000012957894632224558262_);fill:url(#SVGID_00000086650650640333489680000002414093806075313328_);}
	
		.st18{clip-path:url(#SVGID_00000001625695989271375810000012957894632224558262_);fill:url(#SVGID_00000091726684552462352000000016688188572549760927_);}
	.st19{clip-path:url(#SVGID_00000001625695989271375810000012957894632224558262_);fill:#DCDCDC;}
	
		.st20{clip-path:url(#SVGID_00000001625695989271375810000012957894632224558262_);fill:url(#SVGID_00000059988964384369138230000015945593165689175685_);}
	.st21{clip-path:url(#SVGID_00000001625695989271375810000012957894632224558262_);}
	.st22{fill:url(#SVGID_00000088821720422885814250000000148725384179565710_);stroke:#333333;stroke-miterlimit:10;}
	.st23{fill:url(#SVGID_00000062886245189576414160000016137892377253087669_);stroke:#333333;stroke-miterlimit:10;}
	.st24{fill:url(#SVGID_00000005955989347108732420000007670392338333007787_);stroke:#333333;stroke-miterlimit:10;}
	.st25{fill:url(#SVGID_00000108999904988587768170000005794790330828948613_);stroke:#333333;stroke-miterlimit:10;}
	.st26{fill:url(#SVGID_00000003106385514077137990000002797466712147044525_);stroke:#333333;stroke-miterlimit:10;}
	.st27{fill:url(#SVGID_00000150095678437387046680000004951374800875227063_);stroke:#333333;stroke-miterlimit:10;}
	.st28{fill:url(#SVGID_00000106119174158878967990000013952062328448346245_);stroke:#333333;stroke-miterlimit:10;}
	.st29{fill:url(#SVGID_00000025406750622624637820000001783403908690793904_);stroke:#333333;stroke-miterlimit:10;}
	.st30{fill:url(#SVGID_00000053525165580797359500000001433187053838258848_);stroke:#333333;stroke-miterlimit:10;}
	.st31{fill:url(#SVGID_00000143591103378230835650000005735989582060847508_);stroke:#333333;stroke-miterlimit:10;}
	.st32{fill:url(#SVGID_00000007408965013140828640000004385141103932353674_);stroke:#333333;stroke-miterlimit:10;}
	.st33{fill:url(#SVGID_00000044176435769060015100000007438945235380168586_);stroke:#333333;stroke-miterlimit:10;}
	.st34{fill:url(#SVGID_00000033341730195715731460000007745740594360590221_);stroke:#333333;stroke-miterlimit:10;}
	.st35{fill:url(#SVGID_00000155849336789741097150000007928400391234634155_);stroke:#333333;stroke-miterlimit:10;}
	
		.st36{clip-path:url(#SVGID_00000001625695989271375810000012957894632224558262_);fill:url(#SVGID_00000174569466928464987970000003866002323669371795_);}
	
		.st37{clip-path:url(#SVGID_00000001625695989271375810000012957894632224558262_);fill:url(#SVGID_00000096744340685831616600000000986792499894980519_);}
	
		.st38{clip-path:url(#SVGID_00000001625695989271375810000012957894632224558262_);fill:url(#SVGID_00000038393463356545497800000015228764516876767159_);}
	
		.st39{clip-path:url(#SVGID_00000001625695989271375810000012957894632224558262_);fill:none;stroke:#868686;stroke-width:3.0882;stroke-miterlimit:10;}
	.st40{fill:url(#SVGID_00000130649193584840249680000009571739299607493558_);stroke:#666666;stroke-width:3;stroke-miterlimit:10;}
	.st41{fill:url(#SVGID_00000030446229199687015810000004559060451829960600_);stroke:#666666;stroke-width:3;stroke-miterlimit:10;}
	.st42{fill:url(#SVGID_00000140708468723016961010000001257852693606166707_);stroke:#666666;stroke-width:3;stroke-miterlimit:10;}
	.st43{fill:url(#SVGID_00000082354574404769452570000004651323905662985605_);stroke:#666666;stroke-width:3;stroke-miterlimit:10;}
	.st44{fill:url(#SVGID_00000154411862986650075440000004738524650993160375_);stroke:#666666;stroke-width:3;stroke-miterlimit:10;}
	.st45{fill:url(#SVGID_00000084531982308856416710000002384043652148289723_);stroke:#666666;stroke-width:3;stroke-miterlimit:10;}
	.st46{fill:url(#SVGID_00000036234197196699897110000001026275107870378938_);stroke:#666666;stroke-width:3;stroke-miterlimit:10;}
	.st47{fill:url(#SVGID_00000040534565194281002370000005436706727266179728_);stroke:#666666;stroke-width:3;stroke-miterlimit:10;}
	.st48{fill:url(#SVGID_00000140728322936941921150000004494137179515664535_);stroke:#666666;stroke-width:3;stroke-miterlimit:10;}
	.st49{fill:url(#SVGID_00000090289102096579390080000011399324097335487930_);stroke:#666666;stroke-width:3;stroke-miterlimit:10;}
	.st50{fill:url(#SVGID_00000150797008725376078010000005377959136167093946_);stroke:#666666;stroke-width:3;stroke-miterlimit:10;}
	.st51{fill:none;stroke:#333333;stroke-width:3;stroke-miterlimit:10;}
	.st52{fill:none;stroke:#1E1E1C;stroke-width:6.151;stroke-miterlimit:10;}
	.st53{fill:url(#SVGID_00000153671127784108896730000000461324772347962770_);}
	.st54{fill:#F6A316;}
	.st55{fill:url(#SVGID_00000026848200788633864330000012994280083996572842_);}
	
		.st56{clip-path:url(#SVGID_00000020394791162339240760000002962714041112574865_);fill:none;stroke:#1E1E1C;stroke-width:5;stroke-miterlimit:10;}
	
		.st57{clip-path:url(#SVGID_00000020394791162339240760000002962714041112574865_);fill:none;stroke:#1D1F1C;stroke-width:5;stroke-miterlimit:10;}
	
		.st58{clip-path:url(#SVGID_00000020394791162339240760000002962714041112574865_);fill:#FFFFFF;stroke:#1E1E1C;stroke-width:6.151;stroke-miterlimit:10;}
	.st59{clip-path:url(#SVGID_00000020394791162339240760000002962714041112574865_);}
	.st60{fill:#FBBE64;stroke:#1E1E1C;stroke-width:6.151;stroke-miterlimit:10;}
	.st61{fill:#FFFFFF;}
	.st62{clip-path:url(#SVGID_00000044152448890551082160000015951133703175512707_);}
	.st63{fill:#FFFFFF;stroke:#1E1E1C;stroke-width:6.151;stroke-miterlimit:10;}
	.st64{clip-path:url(#SVGID_00000044152448890551082160000015951133703175512707_);fill:#F5A200;}
	
		.st65{clip-path:url(#SVGID_00000079465785506772688600000000227810764034378652_);fill:none;stroke:#1E1E1C;stroke-width:6.151;stroke-miterlimit:10;}
	
		.st66{clip-path:url(#SVGID_00000079465785506772688600000000227810764034378652_);fill:none;stroke:#1D1F1C;stroke-width:6.151;stroke-miterlimit:10;}
	.st67{clip-path:url(#SVGID_00000079465785506772688600000000227810764034378652_);fill:#F6A316;}
	.st68{clip-path:url(#SVGID_00000079465785506772688600000000227810764034378652_);fill:#FFFFFF;}
</style>
<g>
	<defs>
		<circle id="SVGID_00000041984532618691220790000005779797366970485903_" cx="-517.1" cy="503" r="495.1"/>
	</defs>
	<clipPath id="SVGID_00000127003738680902461650000010789553487083523982_">
		<use xlink:href="#SVGID_00000041984532618691220790000005779797366970485903_"  style="overflow:visible;"/>
	</clipPath>
	
		<linearGradient id="SVGID_00000020361893178712746600000005543344190841586089_" gradientUnits="userSpaceOnUse" x1="-1160.1669" y1="475.6797" x2="129.3397" y2="475.6797">
		<stop  offset="9.300595e-04" style="stop-color:#ECECEC"/>
		<stop  offset="0.2715" style="stop-color:#E8E8E8"/>
		<stop  offset="0.5235" style="stop-color:#DDDDDD"/>
		<stop  offset="0.7673" style="stop-color:#CACACA"/>
		<stop  offset="0.9981" style="stop-color:#B1B1B1"/>
	</linearGradient>
	
		<path style="clip-path:url(#SVGID_00000127003738680902461650000010789553487083523982_);fill:url(#SVGID_00000020361893178712746600000005543344190841586089_);" d="
		M-1145,380.9l87.2,30.3l72.1-41.7l53.1,11.4l60.7,19l41.7,15.2l-3.8,72.1l22.8,53.1l15.2-98.6l41.7-37.9l22.8-56.9l41.7-26.5
		l-34.1-22.8l79.6-34.1l53.1-37.9l26.5,26.5h37.9l26.5,19l26.5-7.6l15.2,22.8l30.3-11.4l34.1,22.8l-3.8,26.5l-72.1,3.8l3.8,22.8
		H-341l64.5-7.6l45.5-11.4l64.5-3.8l-49.3-15.2l22.8-30.3l60.7-56.9l166.9,15.2l49.3,3.8l7.6,56.9l-79.6,7.6c0,0,0,22.8,11.4,22.8
		s106.2,11.4,106.2,11.4L118,384.7l-30.3,56.9l34.1,273.1L-1160.2,726L-1145,380.9z"/>
	
		<linearGradient id="SVGID_00000000204252056072642220000011576307183940194746_" gradientUnits="userSpaceOnUse" x1="-1171.0225" y1="851.9234" x2="78.1242" y2="851.9234">
		<stop  offset="4.753638e-04" style="stop-color:#FEE4C1"/>
		<stop  offset="1" style="stop-color:#FFFFFF"/>
	</linearGradient>
	
		<path style="clip-path:url(#SVGID_00000127003738680902461650000010789553487083523982_);fill:url(#SVGID_00000000204252056072642220000011576307183940194746_);" d="
		M78.1,1021.3H-1171c0,0,0-335.6,0-336.2c0-3.9,238.1,4.4,255.9,3.2c52.1-3.5,101.5-10.5,153.9-0.7c57.2,10.7,113.5,29.7,171.9,24.4
		c79-7.1,158.9-19.5,238-19.7c87.6-0.3,175.1-9,262.8-8.9c13.7,0,166.7,4.5,166.7,1.7C78.1,685.1,78.1,1021.3,78.1,1021.3z"/>
	
		<ellipse style="clip-path:url(#SVGID_00000127003738680902461650000010789553487083523982_);fill:#DCDCDC;" cx="-92.6" cy="794.8" rx="176.3" ry="12.3"/>
	
		<linearGradient id="SVGID_00000093888872753181918010000015256972412760805253_" gradientUnits="userSpaceOnUse" x1="-115.0894" y1="672.6693" x2="55.5176" y2="672.6693">
		<stop  offset="0.4214" style="stop-color:#A6BE8C;stop-opacity:0.97"/>
		<stop  offset="0.9962" style="stop-color:#95B478;stop-opacity:0.1"/>
	</linearGradient>
	
		<path style="clip-path:url(#SVGID_00000127003738680902461650000010789553487083523982_);fill:url(#SVGID_00000093888872753181918010000015256972412760805253_);" d="
		M45.8,731c-18.5,5.2-76.3,8.3-94.2,10.7c-24.3,3.3-39.1-7.8-49.9-20.3c-5.3-6.1-17.7-17.1-16.8-23.6c1.2-8.4,24.7-11.3,29.5-19.5
		c3-5.1,18.5-22.4,18.7-27.2c0.9-20.1,0.7-34.8,24-42.5c10.7-3.6,25.7-2.8,37-5.5c7.5-1.8,14.9,11.7,22.1,10.5
		c20.7-3.4,29.5-0.1,31.5,12.8c3.4,22.4,6.7,46.2,7.4,68.6C55.5,706.5,57.7,722.1,45.8,731z"/>
	
		<use xlink:href="#SVGID_00000041984532618691220790000005779797366970485903_"  style="overflow:visible;fill:none;stroke:#333333;stroke-width:2;stroke-miterlimit:10;"/>
</g>
<g>
	<circle class="st51" cx="501.3" cy="503.4" r="492"/>
	<g>
		<path class="st52" d="M382.3,886.3c0,0-14.1,5-21.6-12.6s-17.2-28.1-20.8-46.9c-3.8-19.9-3.7-59.6-8.9-99.8
			c-5.2-39.9-15.6-80.1-26.5-106c-21.9-51.9-70.9-114.1-83.2-134.2c-4.8-7.9-12.1-22.6-17.6-32.7c-3.1-5.6-28.2-36-42.8-75.6
			c-8-21.8-2.7-57.7-2.3-63.3s-6.2-15.6-5.5-30.7c0.7-15.1,13.6-27.5,13.6-27.5l7.8,6.3c0,0-1.5,21.2,0.3,25.4s5.8,8.1,12.3,7.9
			c13-0.4,36.3-0.7,45.4,2c13.7,4.1,39.6,22.3,56.4,41.4s28.2,77.3,28.2,77.3s4.4,18.4,9.5,24.2c5.1,5.9,49.7,34.1,58.4,46.8
			c8.6,12.7,23.7,58.4,28.7,65.1c5,6.6,20.7,27.6,26.2,40.6c7.8,18.4,4,34.9,7.5,44.5c1.4,3.8,19.1,41.5,18.5,58.1
			s-5.4,28.4-9.9,44.9c-4.7,17.1-6.3,40.8-16.3,55.9c-10,15.1-24.5,22.4-31,30.9c-9,11.8-18.6,24.3-21.2,31.5
			C384.1,868.9,387.2,882.4,382.3,886.3z"/>
		
			<linearGradient id="SVGID_00000054258212320958537060000010143480557607550642_" gradientUnits="userSpaceOnUse" x1="164.3111" y1="588.9302" x2="457.6421" y2="588.9302">
			<stop  offset="1.405423e-03" style="stop-color:#FEE1B9"/>
			<stop  offset="1" style="stop-color:#FFFFFF"/>
		</linearGradient>
		<path style="fill:url(#SVGID_00000054258212320958537060000010143480557607550642_);" d="M377.2,873.1c0,0-11.6-1-18.6-17.6
			c-7-16.6-12.8-31.4-13.1-47c-0.3-19.1-2.3-55.4-7.2-93.2c-4.9-37.6-16.7-76.9-27-101.3C290.7,564.9,244.6,508,233,489
			c-4.6-7.5-13.8-22.4-19-31.9c-2.9-5.3-27.2-34.2-40.9-71.6c-7.6-20.6-9.1-50.7-8.7-56c0.4-5.3,0.7-23.5,5.1-23.4
			c9.1,0.3,20.9-1.1,27.1-1.3c12.3-0.4,32.6,1.8,41.8,6.3c12.2,5.8,31,20.5,46.8,38.5c15.8,18,26.5,79.9,26.5,79.9s4.5,14,9.4,19.6
			c4.9,5.5,47.2,35.2,55.3,47.2c8.1,12,24.2,52.3,28.2,59c7.4,12.2,19.9,26.1,25.1,38.3c7.3,17.3,8.9,33.7,9.7,43.3
			c1.1,13.8,18.9,38.2,18.4,51.7c-0.6,15.7-5.1,26.8-9.4,42.4c-4.5,16.1-6.4,44.6-15.9,58.8c-9.4,14.3-23.2,21.5-29.4,29.5
			c-8.5,11.1-18.9,24.9-21.3,31.7C378.7,859.3,381.8,869.5,377.2,873.1z"/>
		<path class="st54" d="M417.4,790.5c0,0-2-2.1-4.6-2.9c0,0-3.8,6.1-5.3,10.4s-7.6,15.9-12.7,19.5c-6.3,4.5-12.6,3.8-19.5,3.4
			c-6.9-0.5-10.3-16.5-12-25.9c-1.7-9.4,1.1-30.3,6.4-44.1s23.4-18,30.6-18.5c7.3-0.4,16.4,8,23.6,24c7.1,16-10.3,28.6-10.3,28.6
			l6.5,2.1"/>
		<path class="st54" d="M426.7,664.6l-3.7,1.9c0,0-5-11.9-9.5-14.6c-8-4.8-17-11.1-26.2-11.7c-9.2-0.6-18.6,8.2-24,18.3
			c-5.4,10.1,5.8,36,16.7,45.9c10.9,10,23.8,4.2,37.6-2.8s6.2-31.3,6.2-31.3l4.9-2.5"/>
		<path class="st54" d="M419.7,585.3l-15.1,4.6c0,0,1.2,11.8-2.9,18c-4.1,6.2-17.7,16.4-27.2,15.2c-9.5-1.2-29.2-6.4-36-24.4
			c-6.8-18,4.6-27.3,8.5-29.3c4-2.1,18.9-6.5,27.5-5.6c7.9,0.8,12.5,4.8,18.5,9.4c5.3,4,8.8,13.8,8.8,13.8l4-2.8"/>
		<path class="st54" d="M358.7,497.7l-3,2.7c0,0,7,10,9.2,16.6c4.7,13.7,1.4,27.4-10.7,32.1s-36.5,11.6-57.8-16
			c-21.3-27.6-12.9-50.9-10-52.9s18.8-19.1,48.5-1.8c9.7,5.7,18.7,19.7,18.7,19.7l3.2-4"/>
		<path class="st54" d="M295,414.8l-5.4-2.2c0,0-4.3,20.8-8,26.1c-3.7,5.3-7.9,11.9-17.4,11.8c-10.5-0.1-40.6-12.4-47.4-40.9
			c-6.8-28.5-2.5-48.6,11.9-55c15.4-6.9,34.1,0.8,43.6,10.4c17.6,17.9,18.7,43.6,18.7,43.6l4.2,2"/>
	</g>
	<g>
		<path class="st52" d="M226.1,128.1c0,0,6.1-16.1,27-9.6c20.9,6.5,37.4,5.7,56.5,16.4c20.2,11.3,55,40.9,94,66
			c38.8,25,81.7,45.6,112.5,55.2c61.6,19.2,152.4,22.2,179.1,26.3c10.5,1.6,28.8,6.1,41.7,8.7c7.1,1.5,52.4,1.9,98,18.4
			c25,9.1,52.5,40.3,57.1,44.8c4.6,4.6,18.2,6.1,31,17.9c12.7,11.8,14,32.2,14,32.2l-11.3,2.2c0,0-17.4-17-22.5-18.6
			c-5.1-1.6-11.4-1-16,4.9c-9.3,11.8-26.2,32.3-35.3,38.3c-13.7,9-48.8,18.2-78,18.8s-88.6-32.5-88.6-32.5s-19.3-9.8-28.3-9.6
			c-8.9,0.2-66.6,18.4-84.2,16.5c-17.5-1.9-68.8-22.4-78.2-23c-9.5-0.5-39.5-2.3-54.9-7.1c-21.8-6.8-33.5-22.3-44.6-26.4
			c-4.3-1.6-50.5-13.9-64.6-26.8c-14.1-12.9-20.9-25.8-32-41.9c-11.5-16.8-31.1-35.7-36.9-55.7s-1.5-38.1-4.1-50
			c-3.7-16.6-7.5-34.3-11.9-41.9C240,142.6,225.9,135.3,226.1,128.1z"/>
		
			<linearGradient id="SVGID_00000000222026839956348480000002728983971284473523_" gradientUnits="userSpaceOnUse" x1="241.4623" y1="283.9879" x2="892.3329" y2="283.9879">
			<stop  offset="1.405423e-03" style="stop-color:#FEE1B9"/>
			<stop  offset="1" style="stop-color:#FFFFFF"/>
		</linearGradient>
		<path style="fill:url(#SVGID_00000000222026839956348480000002728983971284473523_);" d="M241.5,133.4c0,0,9.5-9.4,29.2-3.3
			c19.7,6.2,37,12,50.8,23.3c16.9,13.9,50.2,39,87,62.7c36.6,23.6,79.7,42.2,108.7,51.3c58.2,18.2,142.1,19.9,167.3,23.7
			c9.9,1.5,29.9,4.5,42,6.9c6.7,1.4,50,1.5,93,17.1c23.6,8.6,51.2,29.5,55.5,33.9c4.3,4.3,20.1,18,16.8,21.8
			c-7,7.7-14.5,19.2-18.9,24.7c-8.7,11.1-25.7,27.2-36.4,32c-14.1,6.3-40.8,12-68.3,12.5c-27.5,0.5-89.6-35.8-89.6-35.8
			s-15.6-6.4-24.1-6.3s-65.7,15.3-82.3,13.5s-63.7-17.5-72.6-18.9c-16.1-2.6-37.5-1.8-52.1-6.4c-20.6-6.4-36.1-17.1-45.1-23.6
			c-12.9-9.3-47.4-11.7-58.9-22.1c-13.3-12.2-19.8-24.3-30.2-39.6c-10.8-15.8-34.3-38.6-39.8-57.4c-5.5-18.8-1.6-36.3-4.2-47.6
			c-3.5-15.7-7.9-35-12-42.2C252.4,144.9,241.2,140.1,241.5,133.4z"/>
		<path class="st54" d="M284.1,229.7c0,0,3.4-0.2,6-1.9c0,0-2.5-7.8-5.2-12.4s-8.3-18.5-7.7-25.5c0.7-8.9,6-13.8,11.5-19.5
			c5.5-5.7,22.1,3.2,31.6,8.6c9.5,5.4,25.8,23.3,33.9,38.3s-1.5,33.8-6.5,40.5c-5,6.7-19.2,8.5-38.5,2.9
			c-19.3-5.6-17.4-30.2-17.4-30.2l-6.7,4.1"/>
		<path class="st54" d="M387.5,331l1-4.6c0,0,14.2,4.4,19.9,2.5c10.2-3.4,22.3-6.7,29.7-14.3s6.6-22.3,1.7-34.6
			c-4.8-12.3-35.8-21.5-52.6-19.3s-21.2,17.7-25.4,35c-4.2,17.3,22.9,28.6,22.9,28.6l-1.5,6.1"/>
		<path class="st54" d="M469.1,371.3l0.2-4.5c0,0-11.2-7.6-13.6-15.8c-2.4-8.2-1.3-27.7,6.8-35c8.1-7.4,27.2-20.8,48-13.5
			c20.8,7.3,20.5,24.2,19.4,29.2s-8.3,21.4-15.4,28.2c-6.5,6.3-13.5,7.4-21.9,9.3c-7.4,1.7-18.6-2.5-18.6-2.5l-0.5,5.6"/>
		<path class="st54" d="M584,394.8l-0.2-4.6c0,0-13.9-1.3-21.4-4.2c-15.5-6.1-25.1-19-20.2-33.2c4.8-14.2,16.8-40.6,56.7-38.9
			c39.9,1.7,54.1,26.4,53.7,30.4c-0.4,4,2.8,30.6-34.3,43.8c-12.1,4.3-31.1,1.8-31.1,1.8l1.1,5.7"/>
		<path class="st54" d="M703.7,400.4l5.9-3.1c0,0-15.1-19.2-17-26.4s-4.6-15.7,2.5-24c7.8-9.1,40.9-26.5,70.9-11.3
			c30,15.1,44.4,33.7,39.4,51.1c-5.4,18.6-26,29.3-41.3,30.5c-28.8,2.2-52.1-15.8-52.1-15.8l-4.8,2.2"/>
	</g>
	<path class="st54" d="M608.8,776.3c0,0-2-2.1-4.6-2.9c0,0-3.8,6.1-5.3,10.4c-1.5,4.4-7.6,15.9-12.7,19.5
		c-6.3,4.5-12.6,3.8-19.5,3.4c-6.9-0.5-10.3-16.5-12-25.9c-1.7-9.4,1.1-30.3,6.4-44.1s23.4-18,30.6-18.5c7.3-0.4,16.4,8,23.6,24
		S605,770.8,605,770.8l6.5,2.1"/>
	<path class="st54" d="M711.3,716.5l-3.7,1.9c0,0-5-11.9-9.5-14.6c-8-4.8-17-11.1-26.2-11.7c-9.2-0.6-18.6,8.2-24,18.3
		c-5.4,10.1,5.8,36,16.7,45.9c10.9,10,23.8,4.2,37.6-2.8c13.9-7,6.2-31.3,6.2-31.3l4.9-2.5"/>
	<path class="st54" d="M684.2,555.7l0.5,15.8c0,0,11.7,1.9,16.6,7.5c4.9,5.6,11.2,21.4,7.5,30.2c-3.7,8.8-13.8,26.5-33,28.3
		c-19.2,1.8-25.1-11.6-26-16s-1.3-20,1.8-28c2.8-7.4,7.9-10.8,13.9-15.4c5.2-4,15.7-4.8,15.7-4.8l-1.7-4.6"/>
	<path class="st54" d="M601.2,624.8l-3,2.7c0,0,7,10,9.2,16.6c4.7,13.7,1.4,27.4-10.7,32.1c-12.2,4.8-36.5,11.6-57.8-16
		c-21.3-27.6-12.9-50.9-10-52.9c2.9-2,18.8-19.1,48.5-1.8c9.7,5.7,18.7,19.7,18.7,19.7l3.2-4"/>
	<path class="st54" d="M642.7,844.9l3.5,2c0,0,7.5-9.6,13.1-13.8c11.7-8.5,25.7-9.5,33.9,0.7s22,31.4,1.9,60
		c-20,28.5-44.8,27.4-47.6,25.2c-2.7-2.2-23.8-12.3-16.1-45.8c2.5-11,13.3-23.8,13.3-23.8l-4.7-1.9"/>
	<path class="st54" d="M549.6,508.8l-5.4-2.2c0,0-4.3,20.8-8,26.1c-3.7,5.3-7.9,11.9-17.4,11.8c-10.5-0.1-40.6-12.4-47.4-40.9
		c-6.8-28.5-2.5-48.6,11.9-55c15.4-6.9,34.1,0.8,43.6,10.4c17.6,17.9,18.7,43.6,18.7,43.6l4.2,2"/>
</g>
</svg>
