<?xml version="1.0" encoding="utf-8"?>
<!-- Generator: Adobe Illustrator 22.0.1, SVG Export Plug-In . SVG Version: 6.00 Build 0)  -->
<svg version="1.1" id="Layer_1" xmlns="http://www.w3.org/2000/svg" xmlns:xlink="http://www.w3.org/1999/xlink" x="0px" y="0px"
	 viewBox="0 0 900 400" style="enable-background:new 0 0 900 400;" xml:space="preserve">
<style type="text/css">
	.st0{fill:#B3B3B3;}
	.st1{font-family:'Roboto-LightItalic';}
	.st2{font-size:13px;}
	.st3{fill:none;stroke:#000000;stroke-width:0.75;stroke-miterlimit:10;}
	.st4{font-family:'Roboto-Light';}
	.st5{font-size:14px;}
	.st6{opacity:0.7;fill:#F6A316;enable-background:new    ;}
	.st7{fill:#B4B4B4;}
	.st8{fill:none;stroke:#B4B4B4;stroke-miterlimit:10;}
</style>
<g id="Background2">
	
		<image style="overflow:visible;enable-background:new    ;" width="1784" height="794" xlink:href="madagascar.png"  transform="matrix(0.6582 0 0 0.6582 -44.7804 -92.0746)">
	</image>
</g>
<text transform="matrix(1 0 0 1 777.488 373.9608)" class="st0 st1 st2">OCEANO ÍNDICO</text>
<text transform="matrix(1 0 0 1 228.78 343)" class="st0 st1 st2">A</text>
<g>
	<path class="st3" d="M664.4,285c-0.1,3.2-13.9,66.1-89.3,68.9"/>
	<path d="M576.2,353.6l1.9,1.8l-0.1,0.1l-3.9-0.5h-3.9c1.2-0.6,2.3-1.2,3.4-1.7l3.2-2.2l0.1,0.1L576.2,353.6z"/>
</g>
<text transform="matrix(1 0 0 1 529.95 140.6599)" class="st4 st5">MADAGASCAR</text>
<text transform="matrix(1 0 0 1 603.0073 272.4975)" class="st4 st5">Lémur Cola Anillada </text>
<text transform="matrix(1 0 0 1 168.6124 105.281)" class="st4 st5">ÁFRICA</text>
<path id="XMLID_20_" class="st6" d="M501.6,296.3c4.2-0.7,8.5-0.7,12.8-0.6c1.2,0,2.4,0.2,3.6,0.2c1.4,0,2.5,0.4,3.3,1.6
	c0.8,1.4,2.1,2.4,3.3,3.4c1.5,1.2,2.4,2.9,3.2,4.6c-0.1,0.2-0.2,0.4-0.2,0.6c-0.1,0.8-0.1,1.3,0.4,1.2c0.1,0.9,0,1.8-0.5,2.6
	c-0.2,0.4-0.2,0.9-0.2,1.3c0.1,1.8-0.4,3.4-0.8,5.1c-0.5,2.3-1.4,4.5-0.9,7c0.3,1.6,0.7,3.1,2.4,3.8c1.3,0.5,1.5,1.8,2,2.8
	c-2,0.8-4,1.7-5.7,3c-2.2-0.3-4.2,0.2-5.7,2.1c-0.3-0.8-0.3-0.5-0.4,0.6c-1.7,2.2-2.6,4.8-3.2,7.6c-0.1,0.7-0.4,1.2-0.7,1.8
	c-0.2,0-0.5,0-0.7,0.3c-0.1,0.2,0.1,0.2,0.3,0.2c-0.8,2.5-2.1,4.9-3.2,7.3c-1.1,2.5-0.8,3.7,1.5,5.2c1.3,0.9,2.7,1.7,3.7,3.1
	c1.2,1.6,3.7,1.8,5.1,0.3c1.6-1.7,3.7-1.7,5.5-2.4c1.1-0.5,2.3-0.3,3.4-0.5c1-0.2,2-0.6,2.8-1.5c0.5-0.6,1.1-1.2,1.8-1.7
	c1.9-1.5,5.1-0.6,5.9,1.8c0.3,0.7,0.5,1.5,0.7,2.2c0.2,0.5,0.3,1.1,0.8,1.3c1.1,0.6,1.7,1.6,2,2.6c0.5,2.4,2.1,4.1,3.4,6
	c0.6,0.9,1.1,1.9,1.3,3c0,0.1,0,0.2,0,0.3c-0.1,0.1-0.3,0.1-0.4,0.2c-0.3,0.2-0.7,0.1-0.9,0.5l0,0c-0.9,0.3-1.5,1-2.4,1.3l0,0
	c-0.9-0.3-1.9-0.9-2.8-0.8c-1,0.1-2.1,0.3-3.1,0.7c-0.1,0.1-0.2,0.2-0.3,0.3l0,0c-0.4,0-0.8,0-1.1,0.5l0,0c-0.8,0.1-1.6,0.1-2.1,0.9
	c-0.3,0.1-0.6,0.2-0.9,0.3c-0.2,0-0.4,0-0.5,0.2l0,0c-0.2,0-0.4,0-0.4,0.2l0,0c-0.2,0-0.5,0-0.6,0.2l0,0c-0.1,0.1-0.2,0.1-0.2,0.2
	l0,0c-0.2,0-0.4,0-0.4,0.2l0,0c-0.2,0-0.4,0-0.4,0.3c-1.4,0.8-2.4,2.2-3.9,2.9c-0.5,0.1-1.1,0.2-1.5,0.6l0,0c-2.1-0.1-4.1,0-6.2,0.5
	l0,0c-0.1-0.3,0.1-0.8-0.4-0.9c-0.7-0.7-1.8-0.7-2.6-1.3c-0.1-0.1-0.1-0.2-0.2-0.3l0,0c0-0.4,0.1-0.8-0.4-0.9l0,0
	c-0.1-0.1-0.1-0.2-0.2-0.2l0,0c-0.1-0.1-0.2-0.2-0.2-0.2l0,0c-0.2-0.4-0.5-0.5-0.9-0.5l0,0c-0.1-0.2-0.3-0.2-0.4-0.2l0,0
	c-0.1-0.2-0.3-0.2-0.4-0.2l0,0c-0.1-0.2-0.3-0.2-0.4-0.2l0,0c-0.4-0.4-0.9-0.4-1.4-0.5c-1.9-0.4-4.1,0.1-5.6-1.7
	c-0.8-1.2-1.7-2.1-3.3-2.3c-0.9-0.1-1.4-1-1.6-2s-0.3-1.9-1.1-2.6c-0.7-0.7-0.7-1.6-0.4-2.6c0-0.6,0-1.2-0.7-1.5l0,0
	c0-0.3-0.2-0.5-0.4-0.5l0,0c0-0.2,0-0.4-0.2-0.5l0,0c-0.1-0.1-0.1-0.2-0.2-0.2l0,0c0-0.3-0.1-0.5-0.4-0.5l0,0
	c-0.1-0.2-0.3-0.2-0.4-0.2l0,0c-0.1-0.2-0.2-0.2-0.4-0.2l0,0c-0.1-0.1-0.2-0.2-0.2-0.2l0,0c-0.1-0.1-0.1-0.2-0.2-0.2l0,0
	c-0.1-0.1-0.1-0.2-0.2-0.2l0,0c-0.1-0.1-0.1-0.2-0.2-0.2l0,0c0-0.2,0-0.4-0.2-0.5l0,0c-0.4-2-0.2-3.9-0.2-5.9c0-0.4,0.2-0.9-0.4-1
	c0-1.3,0.1-2.6-0.3-3.9c0.4-0.6,0.2-1.2,0.2-1.8c0-0.5,0-1,0.5-1.1c1.1-0.2,1.4-0.9,1.2-2c0-0.5,0.2-1.1-0.4-1.3
	c0-0.5-0.3-0.8-0.8-0.9l0,0c-0.1-0.1-0.1-0.2-0.2-0.2l0,0c-0.5-0.4-0.7-0.9-0.6-1.6c0.1-1.1-0.1-2.2-0.4-3.3c-0.5-0.9-1.7-1.1-2.2-2
	c0-0.3-0.1-0.5-0.4-0.6l0,0c0-0.3,0-0.7-0.4-0.7l0,0c-0.1-0.1-0.1-0.2-0.2-0.2l0,0c0-0.2-0.1-0.4-0.2-0.5l0,0
	c-0.1-0.1-0.1-0.2-0.2-0.2l0,0c0-0.2,0-0.4-0.2-0.5l0,0c-0.1-1.5-0.3-3-1.2-4.2c0.4-1.4-0.5-2.6-0.6-4c0-0.5-0.2-1.1-0.3-1.7
	c0.3-0.1,0.3-1.1,0.8-0.3c0.2,0.3,0.4,0,0.5-0.1c0.3-0.5,0.1-1.3-0.2-1.4c-1.2-0.5-0.6-1.6-0.9-2.4l0,0c0.4-0.7,0.9-1.4,1.4-2
	c0.1-0.1,0.3-0.4,0.2-0.5c-0.4-0.9,0.1-1.8,0-2.7l0,0c0.2,0,0.3,0,0.4-0.2l0,0c0.1-0.1,0.1-0.2,0.2-0.2l0,0c0.2-0.1,0.2-0.3,0.2-0.5
	l0,0c0.1-0.1,0.1-0.2,0.2-0.2l0,0c0.4-0.5,0.8,0.2,1.2,0.1c-0.2-0.3-0.3-0.6-0.4-0.9l0,0c0.4-0.2,0.4-0.6,0.3-1
	c0.1-0.1,0.1-0.1,0.2-0.2l0,0c1.2,0.1,2.3-0.4,3.4-0.5c0.1,0.2,0.3,0.3,0.4,0.3c0.2-0.1,0-0.3-0.1-0.4c0.6-0.8,1.2-1.7,0.9-2.8
	c-0.1-0.6-0.5-1.1-0.7-1.6c0.9-0.4,1-1.3,1.4-2c0.5-0.8,0.9-1.5,0.6-2.5c0-0.5,0.1-1,0.1-1.6c0.5-0.1,0.3-0.6,0.3-0.9l0,0
	c0.4-0.4,0.7-0.8,0.6-1.4l0,0C501.2,296.3,501.4,296.3,501.6,296.3z"/>
<g>
	<g id="GjHE3I_1_">
		<g>
			<path class="st7" d="M797.6,64.2c-0.5,2.5,1.5,4.7,0.1,7c-1.5-4.8-2.1-9.7-1.8-14.8c0.6-8.2,3.2-15.7,8.2-22.2
				c6.9-9,16-14.4,27.3-15.8c6.2-0.8,12.2-0.1,18.2,1.9c14.7,4.8,23.5,15,27.2,29.6c5.6,22.4-9.6,45.4-32.3,49.4
				c-10.3,1.9-20.1,0.3-29.1-5.3c-1.9-1.2-3.7-2.8-5.5-4.3c-4.4-3.4-7.5-7.7-9.9-12.5c-0.6-1.3-0.8-2.9-1-4.5
				c2.3,5.5,5.5,10.6,9.8,14.8c1.4-3.9,1.1-7.7,0.3-11.5c-0.3-1.6-1.4-2.8-3-3.2c-2.3-0.6-3.8-2-4.8-4.1
				C800.6,67,799.7,65.3,797.6,64.2z M814.8,26c-1.9,0.9-3,2.1-3.5,3.8c-0.6,2.1-1.5,3.9-3.2,5.4c-1.8,1.6-3.5,3.4-5,5.3
				c-1.4,1.7-2.9,3.4-3.7,5.3c-2.1,5-2.6,10.3-2.3,15.7c0,0.5,0.3,1.2,0.7,1.4c2.3,1.4,3.6,3.5,4.8,5.8c0.8,1.7,2.1,2.7,3.9,3.2
				c2.4,0.7,3.6,2.3,3.9,4.7c0.3,2.3,0.6,4.7,0.9,7.1c0.1,0.3,0,1-0.3,1.1c-1,0.7-0.7,1.6-0.5,2.4c0.5,1.7,1.5,3.1,3,4.2
				c13.6,9.7,31.5,10.3,45.4,0.9c11.4-7.7,17.3-18.6,18-32.3c0-0.6-0.1-1.1-0.1-1.6c-0.1,0-0.3,0-0.5,0c-0.3,1.6-0.6,3.1-1,4.7
				c-0.3,1.6-1,3-2.8,3.9c-0.1-2.3-0.2-4.3-0.5-6.2c-0.1-0.9-0.6-1.8-1-2.6c-0.5-0.9-1.1-1.7-1.8-2.5c-0.4-0.5-1-1.2-1.5-1.1
				c-1.9,0.1-3.6-0.6-5.2-1.5c-0.9-0.5-1.8-1-2.8-1.6c0,2.1,1.2,3.4,3,3.5c1.9,0.1,3,1.2,2.5,2.8c-0.6,1.6-1.8,2.6-3.2,3.2
				c-0.4,0.1-1.3-0.1-1.3-0.1c-0.6,1.6-1.3,0.5-2.1,0.2c0.6-0.3,1.3-0.3,1.8-0.7c1.2-0.7,2.4-1.3,3.3-2.2c1.1-1.1,0.6-2.3-1-2.2
				c-2.1,0.1-3.2-1.2-3.9-2.8c-0.3-0.8,0-1.9,0-2.8c0.8,0.2,1.6,0.3,2.2,0.8c2.1,1.2,4.2,2.7,6.9,2.3c1.1-0.1,1.6,0.7,1.9,1.6
				c0.2,0.6,0.4,1.4,0.9,1.7c1.7,1.1,1.9,2.8,2.1,4.5c0.1,1,0.2,1.9,0.3,2.9c0.1,0,0.3,0.1,0.4,0.1c0.2-0.8,0.5-1.7,0.7-2.5
				c0.4-1.5,0.6-3.2,1.3-4.4c0.8-1.2,0.9-2.2,0.7-3.4c-2-13.1-8.7-22.9-20-29.6c-1.6-1-3.2-2.1-5.1-0.7c-0.1,0.1-0.6-0.1-0.9-0.1
				c0.1-0.2,0.3-0.5,0.4-0.7c0.2-0.2,0.4-0.3,0.8-0.6c-0.4-0.2-0.6-0.3-0.9-0.5c-5.7-2.2-11.7-2.8-17.8-2.3
				c-0.6,0.1-1.2,0.1-1.7,0.4c-4.3,2.6-8.5,5.3-12.7,8c-0.9,0.6-1.7,1.3-2.6,1.9c-0.4,0.3-1.2,0.5-1.4,0.3c-0.3-0.3-0.4-1-0.4-1.5
				C814.3,27.6,814.6,26.9,814.8,26z M827.1,20.8c-6.2,1-11.7,3.7-11.6,7.7C819.4,25.9,823.2,23.4,827.1,20.8z M802.5,38.5
				c0.2,0.1,0.4,0.3,0.6,0.5c2.4-2.8,5.8-4.9,7-8.7c-0.2-0.1-0.4-0.3-0.6-0.5C807.2,32.7,804.8,35.6,802.5,38.5z"/>
			<path class="st7" d="M842.5,43.7c1.7-2.8,1.7-2.8,3.3,0c0.6,1,1.2,1.6,2.6,1.2c1.9-0.5,3.1,0.1,3.5,1.5c0.5,1.9-0.4,4-2.2,4.2
				s-3.7-0.1-5.5-0.3c-1.5-0.3-2.8-1.1-4.6,0c-1.5,1-4.1-0.3-5.1-2.6c-0.8-1.7-2-2-3.5-1.9c-2.1,0.2-4.3,0.6-6.6,0.7
				c0.4-0.3,0.8-0.8,1.2-0.9c2.6-0.6,5.3-1.2,7.9-0.5c0.6,0.1,1,0.8,1.4,1.2c0.8,0.9,1.5,1.9,2.4,2.7c0.9,0.7,2.1,0.8,2.9-0.2
				c0.6-0.7,1.1-0.6,1.9-0.3c1.9,0.6,3.8,1.1,5.7,1.5c2.1,0.3,3.4-1,3.2-2.8c-0.1-0.9-0.6-1.6-1.5-1.4c-2.6,0.8-4.2-0.1-5.2-2.9
				c-0.3,0.7-0.4,1-0.6,1.4c-0.3,0.5-0.7,0.8-1,1.3c-0.4-0.4-1-0.8-1.2-1.2c-0.4-0.8-0.6-1.6-0.9-2.4c-0.2-0.5-0.4-1-0.8-1.2
				c-0.3-0.3-0.9-0.3-1.3-0.5c0,0.5-0.1,1,0,1.4c0.7,1.6,0.3,2.6-1.3,3c-0.8,0.3-1.4,0-1.7-0.8c-0.5-1.2-1-2.5-1.6-3.7
				c0.9-0.5,0.9-0.5,2.8,3.5c0.9-0.1,1.3-0.5,0.8-1.5c-0.5-0.9-0.8-2,0.4-2.6s2.2-0.1,2.9,0.9C841.4,41.3,841.9,42.5,842.5,43.7z"/>
			<path class="st7" d="M837.2,87.6c-2.1-1.7-3-5-2.2-7.3c0.5-1.3,0.6-2.6-0.3-3.7c-1.4-1.9-2.1-3.9-1.5-6.2c0.1-0.3,0-0.7-0.1-0.8
				c-1.2-0.4-2.3-1-3.5-1.2c-1.5-0.1-3.1-0.2-4.6,0.1c-2.3,0.5-3.9-0.3-5.5-1.9c-3.2-3.2-3.2-7-3.1-11c0-0.3,0.2-0.6,0.4-1.1
				c0.3,0.6,0.6,0.9,0.6,1.2c0.1,1.1,0.1,2.2,0.1,3.3c-0.3,3.5,1.7,5.8,4.1,7.9c0.6,0.5,1.6,0.7,2.3,0.6c2.7-0.3,5.3-1,7.9,0.6
				c0.1,0.1,0.2,0.1,0.3,0.1c2.4,0.3,2.6,0.4,2.1,2.9c-0.3,1.8,0.1,3.2,1.1,4.6c1.2,1.7,1.4,3.3,0.6,5.3c-0.3,0.8,0,1.9,0.1,2.9
				C836.2,84.9,836.7,86,837.2,87.6z"/>
			<path class="st7" d="M858.1,62.3c-1.1,0.4-1.7-0.2-2.3-1.4c-1.1-2.3-2.3-4.5-3.5-6.7c-0.3-0.6-1.1-0.9-1.9-1.2
				c0.6,2.8,0.6,5.9,3,8c0.5,0.4,1,0.8,1.3,1.3c1,1.8,2.4,2.6,4.5,1.9c0.3-0.1,0.8,0.2,1,0.4c0.1,0.3,0,0.8-0.3,1.1
				c-0.1,0.1-0.6,0-1-0.1c-0.1,0-0.3-0.2-0.3-0.2c-4.6,0.2-5.8-3.8-7.9-6.6c-1.1-1.5-1.2-3.8-1.7-5.7c-0.1-0.3,0.6-1.1,0.8-1
				c1,0.3,2.3,0.5,2.9,1.2c1.4,1.9,2.4,3.9,3.5,5.9C856.9,60.2,857.5,61.2,858.1,62.3z"/>
			<path class="st7" d="M856.8,69.9c-0.4,0.6-0.7,1.4-1.2,1.9c-2.1,2.1-3.7,4.4-3.9,7.5c-0.1,2.1-1.4,3.5-3.2,4.6
				c-0.8,0.4-1.5,0.9-1.2,2c0.1,0.3-0.3,1-0.8,1.3c-1,1-2.3,1.9-3.2,3c-1.4,1.7-3.2,2.1-5.2,1.9c-0.4-0.1-1-0.6-1.1-1
				c-0.1-0.5,0.2-1.1,0.3-1.6c0.1,0,0.3,0.1,0.5,0.1c0.1,0.5,0.2,1,0.3,1.5c1.7,0.3,3,0,4.3-1.3c1-1.2,2.2-2.1,3.3-3.2
				c0.2-0.2,0.4-0.6,0.3-0.8c-0.3-1.5,0.6-2.1,1.6-2.6c1.9-1.1,2.8-2.7,3-4.8c0.3-2.4,1.1-4.6,3.4-6C855.2,71.6,856,70.7,856.8,69.9
				L856.8,69.9z"/>
			<path class="st7" d="M828.1,36.7c1,2.5,0.2,3.7-2.5,3.7c-0.3,0-0.7-0.1-0.9,0.1c-0.6,0.5-1.5,1.2-1.4,1.7c0.1,0.9,1,1.4,2,1
				c0.8-0.3,1.6-0.8,2.4-1.2c0.4-0.2,0.9-0.3,1.4-0.2c-0.9,1.1-1.9,2.1-3.4,1.9c-0.3,0-0.8-0.1-1,0c-1.3,0.5-2.1,0-2.4-1.2
				c-0.3-1.1,0.5-2.5,1.7-2.8c0.6-0.2,1.2-0.1,1.8-0.2c0.6-0.1,1.3-0.3,1.7-0.8c0.1-0.1-0.3-1-0.6-1.5c-0.8-0.9-0.4-1.2,0.6-1.6
				c2-0.7,3.9-1.5,6.2-2.2C832.7,35.9,829.9,35.4,828.1,36.7z"/>
			<path class="st7" d="M833.9,28.3c3,0.3,3,0.3,2.8,1.2c-0.8,0-1.5,0.1-2.1,0c-0.5-0.1-1.2-0.2-1.5-0.6c-0.2-0.3-0.1-1.1,0.1-1.5
				c0.3-0.5,0.8-0.9,1.2-1.3c1-1.1,2.2-2.1,3.2-3.2c1.5-1.7,3.9-2.5,6-1.7c0.3,0.1,0.4,0.6,0.8,1c-1-0.1-1.8-0.4-2.4-0.3
				c-1.1,0.2-2.3,0.5-3.1,1.2c-1.5,1.2-2.8,2.7-4.2,4.1C834.3,27.5,834.1,27.8,833.9,28.3z"/>
			<path class="st7" d="M850.6,86.9c0.5-0.9,0.9-1.9,1.5-2.6c1.2-1.5,2.5-2.8,3.8-4.1c0.2-0.2,0.7-0.3,0.8-0.3
				c0.2,0.1,0.5,0.6,0.3,0.8c-1.1,2.2-1.9,4.7-4.1,6.2c-0.6,0.3-1.2,0.3-1.9,0.5C850.9,87.3,850.7,87.1,850.6,86.9z"/>
			<path class="st7" d="M826.5,34.5c-0.3-0.1-0.9-0.3-1-0.6c-0.1-0.2,0.2-0.8,0.4-1.2c0.3-0.6,0.7-1.1,0.9-1.7
				c0.5-1.2,1.5-1.5,2.4-0.6c1.3,1.5,0.8,3.1-1,3.7C827.7,34.3,827.2,34.3,826.5,34.5z"/>
			<path class="st7" d="M840.6,27c0.2-0.6,0.5-1,0.7-1.6c-0.1-0.1-0.3-0.1-0.3-0.2c-1,0.7-1.5,1.7-1.5,3c0,1-0.2,1.7-1.8,1.8
				c0.7-1.8,1.2-3.5,2.1-5c0.3-0.6,1.3-0.7,2.1-0.8c0.1,0,0.7,1,0.6,1.5c-0.2,0.6-0.8,1.2-1.3,1.7C840.8,27.2,840.7,27.1,840.6,27z"
				/>
			<path class="st7" d="M846.1,25c0.6,0,1.4,0,2.2,0c-0.3,1.3-1.5,1-2.1,1c-0.6,0.1-1.2-0.5-1.7-0.9c-0.1-0.1,0.1-0.8,0.3-1.2
				c0.1-0.2,0.8-0.3,0.9-0.3C845.9,24,846,24.5,846.1,25z"/>
			<path class="st7" d="M825.2,26.9c-1.1,0.3-1.9,0.7-2.8,0.9c-0.2,0.1-0.8-0.1-0.8-0.1c0-0.3,0-0.7,0.2-1
				C822.5,25.9,824,25.9,825.2,26.9z"/>
			<path class="st7" d="M839.5,32.8c0.3-2.3,1.2-3.1,3.7-2.9C841.8,31,840.6,31.9,839.5,32.8L839.5,32.8z"/>
			<path class="st7" d="M839.5,32.8c-0.6,0.1-1.1,0.3-1.7,0.5c-0.3,0.1-0.6,0.3-1,0.2c-0.5-0.1-1.1-0.1-1.5-0.3
				c-0.2-0.1-0.1-0.8-0.1-0.8c1.1,0.1,2,0.1,2.8,0.2C838.6,32.5,839,32.7,839.5,32.8L839.5,32.8z"/>
			<path class="st7" d="M844.2,30c0.2-2.7-1.5-1.7-2.4-1.7c0.4-0.3,0.8-0.9,1.2-1.1c0.3-0.1,1,0.1,1.3,0.4
				C845.1,28.2,845.6,28.9,844.2,30z"/>
			<path class="st7" d="M856.9,69.9c0.3-1.7,1-2.5,2.6-2.2C858.5,68.6,857.6,69.2,856.9,69.9C856.8,69.9,856.9,69.9,856.9,69.9z"/>
			<path class="st7" d="M822.8,48.2C822.7,48.2,822.7,48.2,822.8,48.2L822.8,48.2L822.8,48.2z"/>
			<path class="st7" d="M822.8,48.2L822.8,48.2L822.8,48.2L822.8,48.2z"/>
		</g>
	</g>
	<rect x="826.7" y="71" class="st8" width="34.8" height="18.5"/>
</g>
</svg>
