<?xml version="1.0" encoding="utf-8"?>
<!-- Generator: Adobe Illustrator 26.0.1, SVG Export Plug-In . SVG Version: 6.00 Build 0)  -->
<svg version="1.1" id="Capa_1" xmlns="http://www.w3.org/2000/svg" xmlns:xlink="http://www.w3.org/1999/xlink" x="0px" y="0px"
	 viewBox="0 0 1000 1000" style="enable-background:new 0 0 1000 1000;" xml:space="preserve">
<style type="text/css">
	.st0{fill:#DCDCDC;}
	
		.st1{clip-path:url(#SVGID_00000089563396652238645010000006254460781599962043_);fill:url(#SVGID_00000111162309147434327640000016077463922935451010_);}
	
		.st2{clip-path:url(#SVGID_00000089563396652238645010000006254460781599962043_);fill:url(#SVGID_00000145762343974719768990000005797099163370545304_);}
	.st3{clip-path:url(#SVGID_00000089563396652238645010000006254460781599962043_);fill:#DCDCDC;}
	
		.st4{clip-path:url(#SVGID_00000089563396652238645010000006254460781599962043_);fill:#FFFFFF;stroke:#333333;stroke-width:2;stroke-linecap:round;stroke-linejoin:round;stroke-miterlimit:10;}
	
		.st5{clip-path:url(#SVGID_00000089563396652238645010000006254460781599962043_);fill:none;stroke:#333333;stroke-width:2;stroke-linecap:round;stroke-linejoin:round;stroke-miterlimit:10;}
	
		.st6{clip-path:url(#SVGID_00000089563396652238645010000006254460781599962043_);fill:url(#SVGID_00000151528524276568181850000008717737643916385976_);}
	.st7{clip-path:url(#SVGID_00000089563396652238645010000006254460781599962043_);}
	.st8{fill:#FFFFFF;stroke:#333333;stroke-width:2;stroke-linecap:round;stroke-linejoin:round;stroke-miterlimit:10;}
	.st9{fill:none;stroke:#333333;stroke-width:2;stroke-linecap:round;stroke-linejoin:round;stroke-miterlimit:10;}
	.st10{fill:none;stroke:#333333;stroke-width:2;stroke-linecap:round;stroke-miterlimit:10;}
	
		.st11{clip-path:url(#SVGID_00000089563396652238645010000006254460781599962043_);fill:url(#SVGID_00000114764188720953945940000008299139513692513945_);}
	.st12{fill:url(#SVGID_00000102536313398879480420000005246964387666952634_);}
	.st13{fill:url(#SVGID_00000102534223967963904470000011468519379126631348_);}
	
		.st14{clip-path:url(#SVGID_00000089563396652238645010000006254460781599962043_);fill:url(#SVGID_00000181065417431593641440000014693512775754985639_);}
	
		.st15{clip-path:url(#SVGID_00000089563396652238645010000006254460781599962043_);fill:url(#SVGID_00000019660753675721291870000009736822231995238309_);}
	
		.st16{clip-path:url(#SVGID_00000089563396652238645010000006254460781599962043_);fill:url(#SVGID_00000155130114996950777810000001560206878914518174_);}
	
		.st17{clip-path:url(#SVGID_00000142878905034447316760000009241408245373695117_);fill:url(#SVGID_00000154410909100908413380000017317933485288761275_);}
	
		.st18{clip-path:url(#SVGID_00000142878905034447316760000009241408245373695117_);fill:url(#SVGID_00000105427218751582713450000010156882317364822973_);}
	.st19{clip-path:url(#SVGID_00000142878905034447316760000009241408245373695117_);fill:#DCDCDC;}
	
		.st20{clip-path:url(#SVGID_00000142878905034447316760000009241408245373695117_);fill:url(#SVGID_00000163774642745000214010000018273482748575010469_);}
	.st21{clip-path:url(#SVGID_00000142878905034447316760000009241408245373695117_);}
	.st22{fill:url(#SVGID_00000044879222410189788490000015455364459378464956_);stroke:#333333;stroke-miterlimit:10;}
	.st23{fill:url(#SVGID_00000106141803506804733980000006108478833062880414_);stroke:#333333;stroke-miterlimit:10;}
	.st24{fill:url(#SVGID_00000005972143531111564060000011595048831401670276_);stroke:#333333;stroke-miterlimit:10;}
	.st25{fill:url(#SVGID_00000023988976828557979290000011410301226797015989_);stroke:#333333;stroke-miterlimit:10;}
	.st26{fill:url(#SVGID_00000157310062338885934000000011380075792424540065_);stroke:#333333;stroke-miterlimit:10;}
	.st27{fill:url(#SVGID_00000111186719105573776040000017644988391425416867_);stroke:#333333;stroke-miterlimit:10;}
	.st28{fill:url(#SVGID_00000120537782035044487990000006042088337125676930_);stroke:#333333;stroke-miterlimit:10;}
	.st29{fill:url(#SVGID_00000153667957607609226140000010278171483869692607_);stroke:#333333;stroke-miterlimit:10;}
	.st30{fill:url(#SVGID_00000036215481837440912000000007823147071944899738_);stroke:#333333;stroke-miterlimit:10;}
	.st31{fill:url(#SVGID_00000049932208316185897800000000815534740259161741_);stroke:#333333;stroke-miterlimit:10;}
	.st32{fill:url(#SVGID_00000040535302348062111780000005629890747966105788_);stroke:#333333;stroke-miterlimit:10;}
	.st33{fill:url(#SVGID_00000005981735268450290590000005623504313051535764_);stroke:#333333;stroke-miterlimit:10;}
	.st34{fill:url(#SVGID_00000157305419495861384670000000246152261906647730_);stroke:#333333;stroke-miterlimit:10;}
	.st35{fill:url(#SVGID_00000078736513114152225780000004808660405667116186_);stroke:#333333;stroke-miterlimit:10;}
	
		.st36{clip-path:url(#SVGID_00000142878905034447316760000009241408245373695117_);fill:url(#SVGID_00000034077638638472964550000010035746741451753600_);}
	
		.st37{clip-path:url(#SVGID_00000142878905034447316760000009241408245373695117_);fill:url(#SVGID_00000007418912418587610570000006745490255240791210_);}
	
		.st38{clip-path:url(#SVGID_00000142878905034447316760000009241408245373695117_);fill:url(#SVGID_00000073697660091103372250000006613041652814375581_);}
	
		.st39{clip-path:url(#SVGID_00000142878905034447316760000009241408245373695117_);fill:none;stroke:#868686;stroke-width:3.0882;stroke-miterlimit:10;}
	.st40{fill:url(#SVGID_00000160171402277317435030000009899627592758319520_);stroke:#666666;stroke-width:3;stroke-miterlimit:10;}
	.st41{fill:url(#SVGID_00000121257160397747352660000014146886371427706034_);stroke:#666666;stroke-width:3;stroke-miterlimit:10;}
	.st42{fill:url(#SVGID_00000091729294527455989230000018250629930296641206_);stroke:#666666;stroke-width:3;stroke-miterlimit:10;}
	.st43{fill:url(#SVGID_00000021115085003116611010000011132655680574146715_);stroke:#666666;stroke-width:3;stroke-miterlimit:10;}
	.st44{fill:url(#SVGID_00000016066445973506962560000011509714982834581914_);stroke:#666666;stroke-width:3;stroke-miterlimit:10;}
	.st45{fill:url(#SVGID_00000070839280136229052310000009879234528905094326_);stroke:#666666;stroke-width:3;stroke-miterlimit:10;}
	.st46{fill:url(#SVGID_00000080906476011258377980000003914792147977159333_);stroke:#666666;stroke-width:3;stroke-miterlimit:10;}
	.st47{fill:url(#SVGID_00000113317893944978972730000011699377775264806055_);stroke:#666666;stroke-width:3;stroke-miterlimit:10;}
	.st48{fill:url(#SVGID_00000180325408382835758370000000638638422471631285_);stroke:#666666;stroke-width:3;stroke-miterlimit:10;}
	.st49{fill:url(#SVGID_00000088090544582991557380000010859491031070152635_);stroke:#666666;stroke-width:3;stroke-miterlimit:10;}
	.st50{fill:url(#SVGID_00000073709157577382610320000015679166031876449979_);stroke:#666666;stroke-width:3;stroke-miterlimit:10;}
	.st51{fill:none;stroke:#333333;stroke-width:3;stroke-miterlimit:10;}
	.st52{fill:none;stroke:#1E1E1C;stroke-width:6.151;stroke-miterlimit:10;}
	.st53{fill:url(#SVGID_00000132778522310873037920000003470960459277495951_);}
	.st54{fill:#F6A316;}
	.st55{fill:url(#SVGID_00000148637463141388643060000016678404324871885759_);}
	
		.st56{clip-path:url(#SVGID_00000132798782821384581970000000922627692998519213_);fill:none;stroke:#1E1E1C;stroke-width:5;stroke-miterlimit:10;}
	
		.st57{clip-path:url(#SVGID_00000132798782821384581970000000922627692998519213_);fill:none;stroke:#1D1F1C;stroke-width:5;stroke-miterlimit:10;}
	
		.st58{clip-path:url(#SVGID_00000132798782821384581970000000922627692998519213_);fill:#FFFFFF;stroke:#1E1E1C;stroke-width:6.151;stroke-miterlimit:10;}
	.st59{clip-path:url(#SVGID_00000132798782821384581970000000922627692998519213_);}
	.st60{fill:#FBBE64;stroke:#1E1E1C;stroke-width:6.151;stroke-miterlimit:10;}
	.st61{fill:#FFFFFF;}
	.st62{clip-path:url(#SVGID_00000181048286944010410280000007227973787102189489_);}
	.st63{fill:#FFFFFF;stroke:#1E1E1C;stroke-width:6.151;stroke-miterlimit:10;}
	.st64{clip-path:url(#SVGID_00000181048286944010410280000007227973787102189489_);fill:#F5A200;}
	
		.st65{clip-path:url(#SVGID_00000167361692436631284690000008691145198026125706_);fill:none;stroke:#1E1E1C;stroke-width:6.151;stroke-miterlimit:10;}
	
		.st66{clip-path:url(#SVGID_00000167361692436631284690000008691145198026125706_);fill:none;stroke:#1D1F1C;stroke-width:6.151;stroke-miterlimit:10;}
	.st67{clip-path:url(#SVGID_00000167361692436631284690000008691145198026125706_);fill:#F6A316;}
	.st68{clip-path:url(#SVGID_00000167361692436631284690000008691145198026125706_);fill:#FFFFFF;}
</style>
<g>
	<defs>
		<circle id="SVGID_00000174581519731145071570000008423163663583114401_" cx="500" cy="500" r="492"/>
	</defs>
	<clipPath id="SVGID_00000109743016563520791420000017526899880634326948_">
		<use xlink:href="#SVGID_00000174581519731145071570000008423163663583114401_"  style="overflow:visible;"/>
	</clipPath>
	
		<polyline style="clip-path:url(#SVGID_00000109743016563520791420000017526899880634326948_);fill:none;stroke:#1E1E1C;stroke-width:5;stroke-miterlimit:10;" points="
		771.3,30.7 537.5,385.2 211.7,645.8 94.9,812.5 	"/>
	
		<line style="clip-path:url(#SVGID_00000109743016563520791420000017526899880634326948_);fill:none;stroke:#1D1F1C;stroke-width:5;stroke-miterlimit:10;" x1="226.9" y1="410.5" x2="211.7" y2="645.8"/>
	
		<line style="clip-path:url(#SVGID_00000109743016563520791420000017526899880634326948_);fill:none;stroke:#1E1E1C;stroke-width:5;stroke-miterlimit:10;" x1="495.1" y1="698.6" x2="270.4" y2="600.7"/>
	
		<path style="clip-path:url(#SVGID_00000109743016563520791420000017526899880634326948_);fill:#FFFFFF;stroke:#1E1E1C;stroke-width:6.151;stroke-miterlimit:10;" d="
		M328.1,550.3c-35,39.9-95.6,43.9-135.5,8.9c-39.9-35-43.9-95.6-8.9-135.5s145.6-47.6,159-35.8C359.5,402.6,363,510.4,328.1,550.3z"
		/>
	
		<path style="clip-path:url(#SVGID_00000109743016563520791420000017526899880634326948_);fill:#FFFFFF;stroke:#1E1E1C;stroke-width:6.151;stroke-miterlimit:10;" d="
		M451.2,809.9c-65.8-3.2-116.6-59.2-113.3-125c3.2-65.8,59.2-116.6,125-113.3s158.8,105,157.7,127.2
		C619.2,726.4,517,813.1,451.2,809.9z"/>
	
		<path style="clip-path:url(#SVGID_00000109743016563520791420000017526899880634326948_);fill:#FFFFFF;stroke:#1E1E1C;stroke-width:6.151;stroke-miterlimit:10;" d="
		M712,289.1c-48.6,18.2-102.7-6.3-121-54.9s6.3-102.7,54.9-121s147.5,26.3,153.7,42.6C807.3,176.3,760.6,270.9,712,289.1z"/>
	
		<path style="clip-path:url(#SVGID_00000109743016563520791420000017526899880634326948_);fill:#FFFFFF;stroke:#1E1E1C;stroke-width:6.151;stroke-miterlimit:10;" d="
		M252.3,352.1c6.7,52.6-30.6,100.6-83.2,107.3S68.5,428.8,61.8,376.2s61-140.5,78.7-142.7C162.7,230.6,245.7,299.5,252.3,352.1z"/>
	<g style="clip-path:url(#SVGID_00000109743016563520791420000017526899880634326948_);">
		<circle class="st60" cx="527.3" cy="408.6" r="126.8"/>
		<ellipse class="st61" cx="526.5" cy="411.1" rx="99.1" ry="100.7"/>
		<g>
			<ellipse class="st54" cx="526.2" cy="361.6" rx="56.4" ry="39.1"/>
			<g>
				<path class="st61" d="M469.8,361.4c28.1-1.4,56.5-1.9,84.6-2c8.2,0,20.1,0,28.2,0.2c0,0,0,4.1,0,4.1
					c-28.1,0.5-56.6,0.1-84.6-0.7c-8.2-0.3-20.1-0.6-28.2-1.1C469.8,361.8,469.8,361.4,469.8,361.4L469.8,361.4z"/>
			</g>
		</g>
		<g>
			<path class="st54" d="M606.5,405c16.5,16.5,12.5,47.2-8.9,68.6c-21.4,21.4-53.9,25.2-68.7,7.1c-9.8-12-5.8-49.5,15.6-70.9
				C565.9,388.5,590,388.5,606.5,405z"/>
			<g>
				<polygon class="st61" points="529.9,482.5 606.3,404.9 606.7,405.2 534.3,486.6 529.9,482.5 				"/>
			</g>
		</g>
		<g>
			<path class="st54" d="M513.9,484.9c-15.5,16-47,4.4-65.1-19.9c-18-24.3-18.1-54.7-0.2-68c17.9-13.3,41.9-11.4,59.9,12.8
				C526.5,434.1,527.3,471.1,513.9,484.9z"/>
			<g>
				<polygon class="st61" points="450.6,395.5 514.1,484.8 513.7,485.1 446.6,398.5 450.6,395.5 				"/>
			</g>
		</g>
	</g>
	<g style="clip-path:url(#SVGID_00000109743016563520791420000017526899880634326948_);">
		<path class="st54" d="M706.8,647.3c-10.6,22.2-42.5,29-71.3,15.2c-28.8-13.8-43.9-44.8-31.2-65.8c8.4-13.9,47.2-23.1,76-9.4
			C709,601.1,717.4,625.1,706.8,647.3z"/>
		<g>
			<polygon class="st61" points="603,598.3 706.9,647 706.7,647.5 600.4,604.1 603,598.3 			"/>
		</g>
	</g>
	<g style="clip-path:url(#SVGID_00000109743016563520791420000017526899880634326948_);">
		<path class="st54" d="M834.7,646.7c10.6,22.2-4.2,51.3-33,65c-28.8,13.7-62.5,5.9-70.8-17.2c-5.5-15.3,11.7-51.2,40.5-64.9
			C800.2,615.9,824.1,624.5,834.7,646.7z"/>
		<g>
			<polygon class="st61" points="731.3,696.5 834.6,646.5 834.8,646.9 734.2,702.2 731.3,696.5 			"/>
		</g>
	</g>
	<g style="clip-path:url(#SVGID_00000109743016563520791420000017526899880634326948_);">
		<path class="st54" d="M822.7,499.2c10.6,22.2-4.2,51.3-33,65c-28.8,13.7-62.5,5.9-70.8-17.2c-5.5-15.3,11.7-51.2,40.5-64.9
			C788.2,468.3,812.2,477,822.7,499.2z"/>
		<g>
			<polygon class="st61" points="719.3,549 822.6,498.9 822.9,499.4 722.2,554.6 719.3,549 			"/>
		</g>
	</g>
	<g style="clip-path:url(#SVGID_00000109743016563520791420000017526899880634326948_);">
		<path class="st54" d="M415.5,70.6c10.6,22.2-4.2,51.3-33,65c-28.8,13.7-62.5,5.9-70.8-17.2c-5.5-15.3,11.7-51.2,40.5-64.9
			S404.9,48.4,415.5,70.6z"/>
		<g>
			<polygon class="st61" points="312.1,120.5 415.4,70.4 415.6,70.9 315,126.1 312.1,120.5 			"/>
		</g>
	</g>
	
		<use xlink:href="#SVGID_00000174581519731145071570000008423163663583114401_"  style="overflow:visible;fill:none;stroke:#333333;stroke-width:3;stroke-miterlimit:10;"/>
</g>
</svg>
